<?xml version="1.0" standalone="no"?>
<!DOCTYPE svg PUBLIC "-//W3C//DTD SVG 20010904//EN"
 "http://www.w3.org/TR/2001/REC-SVG-20010904/DTD/svg10.dtd">
<svg version="1.0" xmlns="http://www.w3.org/2000/svg"
 width="170.000000pt" height="170.000000pt" viewBox="0 0 170.000000 170.000000"
 preserveAspectRatio="xMidYMid meet">
<metadata>
Created by potrace 1.14, written by Peter Selinger 2001-2017
</metadata>
<g transform="translate(0.000000,170.000000) scale(0.100000,-0.100000)"
fill="#000000" stroke="none">
<path d="M707 1685 c-32 -6 -61 -12 -65 -14 -4 -1 -25 -6 -47 -12 -53 -14
-156 -66 -227 -113 -167 -111 -306 -321 -349 -529 -15 -70 -18 -222 -6 -299
34 -229 173 -444 370 -575 71 -47 207 -108 266 -118 19 -3 38 -8 43 -11 20
-13 222 -12 300 0 120 20 295 92 346 142 7 8 17 14 21 14 5 0 40 31 79 69 109
107 180 221 221 355 31 101 32 110 36 241 2 101 -1 135 -21 215 -23 89 -108
280 -125 280 -4 0 -10 8 -13 18 -8 25 -115 133 -179 181 -28 21 -77 52 -108
69 -54 29 -199 86 -199 77 0 -2 -15 1 -32 6 -49 15 -245 18 -311 4z"/>
</g>
</svg>
